<svg width="153" height="42" viewBox="0 0 153 42" fill="none" xmlns="http://www.w3.org/2000/svg">
<g clip-path="url(#clip0_2903_801)">
<rect x="3.06" y="4.59003" width="146.37" height="33.15" fill="white"/>
<path d="M7.0518 0.139568C4.1008 0.518413 1.43559 2.73831 0.471864 5.6162C0.0398479 6.91225 0.059787 6.02828 0.0797262 21.0691L0.0996654 34.7274L0.279118 35.3788C1.20297 38.7219 3.86817 41.0548 7.24454 41.4735C8.04211 41.5666 144.712 41.5666 145.609 41.4669C148.839 41.1146 151.538 38.9479 152.521 35.9238C152.953 34.5945 152.934 35.4253 152.934 20.7966C152.934 11.7973 152.914 7.35091 152.86 6.99865C152.727 6.00169 152.269 4.77211 151.697 3.87484C151.352 3.32319 150.74 2.59209 150.634 2.59209C150.581 2.59209 150.541 2.55221 150.541 2.49904C150.541 2.44587 150.341 2.23318 150.096 2.02715C148.886 1.02354 147.69 0.465242 146.161 0.199387C145.41 0.0664587 145.064 0.0664585 76.4402 0.0731049C38.5092 0.0797513 7.28442 0.106336 7.0518 0.139568ZM61.0803 6.97871C65.2144 7.08505 68.0458 7.31103 72.0469 7.84939C73.7484 8.07537 73.9544 8.15512 74.1006 8.63366C74.1538 8.82641 74.1737 10.8602 74.1737 16.2305C74.1737 23.0563 74.1604 23.5814 74.0541 23.7941C73.8813 24.1397 73.6354 24.2793 73.2299 24.2859C73.0372 24.2859 71.5949 24.246 70.0197 24.1929C63.5395 23.9868 56.8732 24.472 50.2135 25.6351C48.8244 25.8811 48.8177 25.8811 48.5718 26.127C48.3525 26.3397 48.3193 26.4128 48.3193 26.6786C48.3193 26.9312 48.3591 27.0242 48.5386 27.2236C48.7513 27.4563 48.7912 27.4695 49.7815 27.6556C53.643 28.3668 57.9233 28.8653 62.4429 29.1245C64.264 29.2242 70.4983 29.2308 72.1798 29.1245C73.3629 29.0514 73.4227 29.058 73.6886 29.1843C74.1405 29.4036 74.187 29.6097 74.1604 31.2912C74.1405 32.5873 74.1272 32.7069 74.0009 32.8797C73.7484 33.2253 73.6088 33.2586 70.9237 33.5975C62.5891 34.6543 53.3705 34.5812 45.129 33.3915C43.9326 33.2187 43.7532 33.1589 43.5538 32.8531C43.4408 32.6803 43.4342 32.029 43.4342 20.7035C43.4342 10.7339 43.4475 8.70677 43.5272 8.52732C43.6801 8.15512 43.9127 8.06872 45.2952 7.88262C49.2697 7.35091 53.6364 7.01194 57.2919 6.95877C57.8568 6.95212 58.3952 6.93883 58.4882 6.92554C58.5813 6.91889 59.7444 6.94548 61.0803 6.97871ZM97.3364 6.97871C100.314 7.11164 102.959 7.33097 105.711 7.68323C108.183 7.99561 108.33 8.02884 108.582 8.42098C108.695 8.58714 108.702 8.94604 108.722 13.4324C108.742 18.7561 108.748 18.6498 108.336 18.9289L108.104 19.0884L106.442 19.0286C104.009 18.9489 98.2802 18.9688 96.6718 19.0619C94.8906 19.1682 92.4846 19.3742 90.9559 19.547C89.2079 19.7398 86.0641 20.1984 85.8515 20.2781C85.2134 20.5374 85.1536 21.4612 85.7584 21.7802C86.2237 22.0195 91.2218 22.6509 94.6114 22.8968C98.0144 23.1427 102.886 23.2092 106.316 23.0563C107.991 22.9766 108.064 22.9766 108.276 23.1029C108.682 23.3355 108.735 23.5482 108.735 24.8376C108.735 26.1004 108.675 26.3795 108.35 26.6188C108.183 26.7451 108.097 26.7517 106.841 26.7185C106.11 26.6986 103.717 26.6853 101.524 26.6853C97.6156 26.6919 96.5787 26.7252 93.7806 26.9578C90.6435 27.217 86.1373 27.8085 85.7252 28.0212C85.1669 28.307 85.2466 29.2641 85.8515 29.4967C86.2104 29.6363 89.8725 30.1348 92.3184 30.374C96.9509 30.8193 102.634 30.9523 106.801 30.7063C107.858 30.6399 107.977 30.6465 108.19 30.7529C108.602 30.9589 108.702 31.1649 108.722 31.8562C108.755 32.8664 108.542 33.119 107.532 33.2719C105.126 33.6308 101.564 33.9897 98.5992 34.1758C96.7582 34.2887 89.9589 34.2887 88.1644 34.1758C84.9143 33.9697 81.8105 33.664 79.564 33.3317C78.5803 33.1854 78.4474 33.1456 78.2812 32.9861C78.1749 32.8864 78.0619 32.6936 78.0286 32.5607C77.9821 32.3945 77.9688 28.2272 77.9755 20.4576C77.9954 9.25843 78.0021 8.59378 78.1151 8.42098C78.3743 8.02219 78.5471 7.98232 81.6177 7.61012C84.1168 7.31103 86.762 7.0917 89.2278 6.98536C90.9891 6.9056 95.6549 6.9056 97.3364 6.97871ZM123.616 7.09835C123.743 7.15816 123.902 7.28445 123.969 7.37749C124.042 7.48384 124.44 9.05238 125.019 11.5315C125.537 13.7248 126.401 17.4335 126.953 19.773C127.498 22.1126 128.029 24.3657 128.123 24.7778C128.322 25.6152 128.442 25.8611 128.754 26.0605C129.166 26.3131 129.738 26.0871 129.93 25.5953C129.964 25.5022 130.356 23.8074 130.801 21.8334C131.246 19.8594 131.811 17.3338 132.064 16.2172C132.316 15.1006 132.855 12.7079 133.26 10.9001C133.672 9.09226 134.051 7.52372 134.111 7.41737C134.171 7.31103 134.33 7.17146 134.457 7.09835C134.683 6.97871 134.915 6.97871 140.106 6.992C145.277 7.01194 145.529 7.01859 145.729 7.13823C146.194 7.41737 146.154 6.22102 146.154 20.6703C146.154 33.6175 146.154 33.7172 146.021 33.9298C145.795 34.2954 145.629 34.3286 143.881 34.3286C142.386 34.3286 142.299 34.322 142.12 34.1891C141.761 33.9232 141.768 33.9897 141.768 30.2743C141.768 26.8182 141.768 26.8116 141.621 26.5191C141.508 26.2998 141.389 26.1801 141.149 26.0605C140.87 25.9209 140.717 25.8944 139.873 25.8678C138.81 25.8345 138.172 25.9076 137.461 26.1469C136.165 26.5922 135.101 27.4097 134.357 28.5463C133.818 29.3571 133.692 29.716 133.18 31.7764C132.928 32.8265 132.662 33.777 132.596 33.8833C132.316 34.3419 132.429 34.3286 129.106 34.3286C126.355 34.3286 126.095 34.322 125.929 34.209C125.83 34.1492 125.71 34.0229 125.65 33.9431C125.564 33.8036 125.165 32.2284 124.181 28.1142C123.782 26.446 123.729 26.3131 123.463 26.0605C123.311 25.9143 123.211 25.8944 122.699 25.8678C120.247 25.7481 117.954 27.1771 116.95 29.4502C116.611 30.2212 116.505 30.8459 116.471 32.3015C116.432 33.8036 116.392 33.9764 116.026 34.2023C115.833 34.3153 115.674 34.3286 114.205 34.3286C112.683 34.3286 112.59 34.322 112.41 34.1891C111.998 33.8833 112.025 34.9135 112.025 20.6371C112.025 7.80951 112.025 7.61012 112.158 7.41737C112.224 7.31103 112.404 7.17146 112.557 7.10499C112.809 6.98536 113.122 6.97871 118.106 6.97871C123.005 6.97871 123.404 6.98536 123.616 7.09835Z" fill="#1E6DB4"/>
<path d="M7.675 26C7.625 26 7.6 25.975 7.6 25.925L7.63 15.62C7.63 15.58 7.65 15.56 7.69 15.56H12.49C12.54 15.56 12.565 15.58 12.565 15.62V17.315C12.565 17.355 12.545 17.375 12.505 17.375H9.43V19.7H12.505C12.545 19.7 12.565 19.725 12.565 19.775L12.58 21.47C12.58 21.51 12.555 21.53 12.505 21.53H9.43V25.925C9.43 25.975 9.405 26 9.355 26H7.675ZM14.12 26C14.08 26 14.06 25.975 14.06 25.925L14.09 15.62C14.09 15.58 14.11 15.56 14.15 15.56H17.18C17.72 15.56 18.215 15.695 18.665 15.965C19.125 16.225 19.49 16.58 19.76 17.03C20.03 17.47 20.165 17.97 20.165 18.53C20.165 18.9 20.11 19.235 20 19.535C19.89 19.825 19.76 20.075 19.61 20.285C19.46 20.485 19.325 20.635 19.205 20.735C19.745 21.335 20.015 22.04 20.015 22.85L20.03 25.925C20.03 25.975 20.005 26 19.955 26H18.26C18.22 26 18.2 25.985 18.2 25.955V22.85C18.2 22.49 18.07 22.18 17.81 21.92C17.56 21.65 17.25 21.515 16.88 21.515H15.89L15.875 25.925C15.875 25.975 15.855 26 15.815 26H14.12ZM15.89 19.715H17.18C17.49 19.715 17.765 19.6 18.005 19.37C18.245 19.14 18.365 18.86 18.365 18.53C18.365 18.21 18.245 17.935 18.005 17.705C17.775 17.475 17.5 17.36 17.18 17.36H15.89V19.715ZM23.998 26.15C23.458 26.15 22.963 26.015 22.513 25.745C22.073 25.465 21.718 25.1 21.448 24.65C21.178 24.19 21.043 23.685 21.043 23.135L21.058 18.38C21.058 17.83 21.188 17.33 21.448 16.88C21.718 16.43 22.078 16.07 22.528 15.8C22.978 15.53 23.468 15.395 23.998 15.395C24.538 15.395 25.028 15.53 25.468 15.8C25.908 16.07 26.258 16.43 26.518 16.88C26.788 17.33 26.923 17.83 26.923 18.38L26.938 23.135C26.938 23.685 26.803 24.19 26.533 24.65C26.273 25.1 25.918 25.465 25.468 25.745C25.028 26.015 24.538 26.15 23.998 26.15ZM23.998 24.335C24.298 24.335 24.558 24.215 24.778 23.975C25.008 23.725 25.123 23.445 25.123 23.135L25.108 18.38C25.108 18.05 25.003 17.77 24.793 17.54C24.583 17.31 24.318 17.195 23.998 17.195C23.688 17.195 23.423 17.31 23.203 17.54C22.983 17.76 22.873 18.04 22.873 18.38V23.135C22.873 23.465 22.983 23.75 23.203 23.99C23.423 24.22 23.688 24.335 23.998 24.335ZM29.3881 26C29.3481 26 29.3281 25.975 29.3281 25.925V17.375H27.3781C27.3281 17.375 27.3031 17.35 27.3031 17.3L27.3181 15.62C27.3181 15.58 27.3381 15.56 27.3781 15.56H33.0781C33.1281 15.56 33.1531 15.58 33.1531 15.62V17.3C33.1531 17.35 33.1331 17.375 33.0931 17.375H31.1281L31.1431 25.925C31.1431 25.975 31.1231 26 31.0831 26H29.3881ZM32.6955 25.925L34.5555 15.62C34.5655 15.58 34.5905 15.56 34.6305 15.56H36.8055C36.8455 15.56 36.8705 15.58 36.8805 15.62L38.6655 25.925C38.6755 25.975 38.6555 26 38.6055 26H36.9405C36.9005 26 36.8755 25.975 36.8655 25.925L36.7005 24.83H34.6605L34.4955 25.925C34.4855 25.975 34.4605 26 34.4205 26H32.7555C32.7155 26 32.6955 25.975 32.6955 25.925ZM34.9605 23.225H36.4005L35.7855 19.01L35.6955 18.455L35.6355 19.01L34.9605 23.225Z" fill="white"/>
</g>
<defs>
<clipPath id="clip0_2903_801">
<rect width="153" height="41.6064" fill="white"/>
</clipPath>
</defs>
</svg>
